<svg width="1200" height="760" viewBox="0 0 1200 760" fill="none" xmlns="http://www.w3.org/2000/svg">
  <defs>
    <linearGradient id="bg3" x1="0" y1="0" x2="1200" y2="760" gradientUnits="userSpaceOnUse">
      <stop stop-color="#F4E9DF"/>
      <stop offset="1" stop-color="#E7D7C9"/>
    </linearGradient>
    <filter id="shadow3" x="90" y="60" width="1020" height="640" filterUnits="userSpaceOnUse" color-interpolation-filters="sRGB">
      <feDropShadow dx="0" dy="18" stdDeviation="20" flood-color="#6B533F" flood-opacity="0.18"/>
    </filter>
  </defs>
  <rect width="1200" height="760" fill="url(#bg3)"/>
  <g filter="url(#shadow3)">
    <rect x="120" y="90" width="960" height="580" rx="28" fill="#FFFDFB"/>
    <text x="160" y="145" fill="#2D2A35" font-size="34" font-family="Arial, PingFang SC, Microsoft YaHei, sans-serif">多实例服务的统一限流</text>

    <rect x="170" y="230" width="180" height="90" rx="18" fill="#F5F2FB" stroke="#D4CAE8"/>
    <text x="260" y="285" text-anchor="middle" fill="#5B3FA7" font-size="28" font-family="Arial, PingFang SC, Microsoft YaHei, sans-serif">客户端请求</text>

    <rect x="430" y="230" width="180" height="90" rx="18" fill="#F2F8FF" stroke="#CADDF5"/>
    <text x="520" y="285" text-anchor="middle" fill="#2167B8" font-size="28" font-family="Arial, PingFang SC, Microsoft YaHei, sans-serif">网关层限流</text>

    <rect x="700" y="180" width="220" height="90" rx="18" fill="#EFFAF1" stroke="#CBE7D1"/>
    <text x="810" y="235" text-anchor="middle" fill="#2C8F46" font-size="28" font-family="Arial, PingFang SC, Microsoft YaHei, sans-serif">服务实例 A</text>

    <rect x="700" y="300" width="220" height="90" rx="18" fill="#EFFAF1" stroke="#CBE7D1"/>
    <text x="810" y="355" text-anchor="middle" fill="#2C8F46" font-size="28" font-family="Arial, PingFang SC, Microsoft YaHei, sans-serif">服务实例 B</text>

    <rect x="700" y="420" width="220" height="90" rx="18" fill="#EFFAF1" stroke="#CBE7D1"/>
    <text x="810" y="475" text-anchor="middle" fill="#2C8F46" font-size="28" font-family="Arial, PingFang SC, Microsoft YaHei, sans-serif">服务实例 C</text>

    <rect x="430" y="470" width="180" height="90" rx="18" fill="#FFF5EE" stroke="#F0D4BF"/>
    <text x="520" y="525" text-anchor="middle" fill="#C76A20" font-size="28" font-family="Arial, PingFang SC, Microsoft YaHei, sans-serif">Redis 计数</text>

    <path d="M350 275H430" stroke="#6A6A6A" stroke-width="4"/>
    <path d="M610 275H700" stroke="#6A6A6A" stroke-width="4"/>
    <path d="M610 275C660 275 660 225 700 225" stroke="#6A6A6A" stroke-width="4" fill="none"/>
    <path d="M610 275C660 275 660 345 700 345" stroke="#6A6A6A" stroke-width="4" fill="none"/>
    <path d="M610 275C660 275 660 465 700 465" stroke="#6A6A6A" stroke-width="4" fill="none"/>
    <path d="M520 320V470" stroke="#6A6A6A" stroke-width="4"/>

    <text x="170" y="620" fill="#333333" font-size="24" font-family="Arial, PingFang SC, Microsoft YaHei, sans-serif">网关层适合控总量、控 IP，Redis 适合多实例共享限流状态</text>
  </g>
</svg>
