<svg width="1200" height="760" viewBox="0 0 1200 760" fill="none" xmlns="http://www.w3.org/2000/svg">
  <defs>
    <linearGradient id="bg2" x1="0" y1="0" x2="1200" y2="760" gradientUnits="userSpaceOnUse">
      <stop stop-color="#E6F0EC"/>
      <stop offset="1" stop-color="#CFE3DA"/>
    </linearGradient>
    <linearGradient id="terminal2" x1="120" y1="80" x2="1080" y2="680" gradientUnits="userSpaceOnUse">
      <stop stop-color="#17181C"/>
      <stop offset="1" stop-color="#0D0E11"/>
    </linearGradient>
    <filter id="shadow2" x="80" y="50" width="1040" height="660" filterUnits="userSpaceOnUse" color-interpolation-filters="sRGB">
      <feDropShadow dx="0" dy="18" stdDeviation="20" flood-color="#2B5C4B" flood-opacity="0.2"/>
    </filter>
  </defs>
  <rect width="1200" height="760" fill="url(#bg2)"/>
  <g filter="url(#shadow2)">
    <rect x="110" y="80" width="980" height="600" rx="28" fill="url(#terminal2)"/>
    <rect x="110" y="80" width="980" height="52" rx="28" fill="#2A2C32"/>
    <rect x="110" y="106" width="980" height="26" fill="#2A2C32"/>
    <circle cx="148" cy="106" r="8" fill="#FF5F57"/>
    <circle cx="176" cy="106" r="8" fill="#FEBC2E"/>
    <circle cx="204" cy="106" r="8" fill="#28C840"/>
    <text x="600" y="112" text-anchor="middle" fill="#D6DAE3" font-size="20" font-family="Menlo, Monaco, Consolas, monospace">ubuntu@server: ~/images</text>
    <text x="155" y="182" fill="#8BE9FD" font-size="30" font-family="Menlo, Monaco, Consolas, monospace">$ catimg -w 60 qrcode.png</text>
    <g transform="translate(155 230)">
      <rect width="330" height="330" rx="14" fill="#0B0C0F" stroke="#393B44"/>
      <rect x="26" y="26" width="278" height="278" fill="#F5F5F0"/>
      <rect x="44" y="44" width="64" height="64" fill="#111111"/>
      <rect x="58" y="58" width="36" height="36" fill="#F5F5F0"/>
      <rect x="176" y="44" width="34" height="34" fill="#111111"/>
      <rect x="224" y="44" width="34" height="34" fill="#111111"/>
      <rect x="44" y="126" width="22" height="22" fill="#111111"/>
      <rect x="88" y="126" width="22" height="22" fill="#111111"/>
      <rect x="132" y="126" width="22" height="22" fill="#111111"/>
      <rect x="176" y="126" width="22" height="22" fill="#111111"/>
      <rect x="220" y="126" width="22" height="22" fill="#111111"/>
      <rect x="264" y="126" width="22" height="22" fill="#111111"/>
      <rect x="44" y="170" width="34" height="34" fill="#111111"/>
      <rect x="108" y="170" width="22" height="22" fill="#111111"/>
      <rect x="152" y="170" width="22" height="22" fill="#111111"/>
      <rect x="196" y="170" width="34" height="34" fill="#111111"/>
      <rect x="250" y="170" width="36" height="36" fill="#111111"/>
      <rect x="44" y="224" width="64" height="64" fill="#111111"/>
      <rect x="58" y="238" width="36" height="36" fill="#F5F5F0"/>
      <rect x="176" y="224" width="22" height="22" fill="#111111"/>
      <rect x="220" y="224" width="22" height="22" fill="#111111"/>
      <rect x="264" y="224" width="22" height="22" fill="#111111"/>
    </g>
    <text x="540" y="288" fill="#A6E3A1" font-size="28" font-family="Menlo, Monaco, Consolas, monospace">终端内直接渲染图片缩略图</text>
    <text x="540" y="338" fill="#D5D8E1" font-size="26" font-family="Menlo, Monaco, Consolas, monospace">适合快速确认二维码、截图和流程图内容</text>
    <text x="540" y="424" fill="#F9E2AF" font-size="26" font-family="Menlo, Monaco, Consolas, monospace">建议配合 -w 指定宽度，避免图片过大</text>
    <text x="540" y="474" fill="#CBA6F7" font-size="26" font-family="Menlo, Monaco, Consolas, monospace">终端支持 256 色时效果会更好</text>
    <text x="540" y="548" fill="#8BE9FD" font-size="28" font-family="Menlo, Monaco, Consolas, monospace">$ echo $TERM</text>
    <text x="720" y="548" fill="#D5D8E1" font-size="28" font-family="Menlo, Monaco, Consolas, monospace">xterm-256color</text>
    <text x="540" y="600" fill="#F38BA8" font-size="26" font-family="Menlo, Monaco, Consolas, monospace">在 SSH 里也能做轻量预览</text>
  </g>
</svg>
